<svg xmlns="http://www.w3.org/2000/svg" width="29.633" height="14.808" viewBox="0 0 29.633 14.808">
  <g id="Group_37854" data-name="Group 37854" transform="translate(-939.184 -1001.659)">
    <path id="Path_19844" data-name="Path 19844" d="M18.384,4.074a1.866,1.866,0,0,1-1.422-.655L5.894-9.527A1.87,1.87,0,0,1,6.1-12.164a1.87,1.87,0,0,1,2.637.206L19.8.988a1.87,1.87,0,0,1-1.421,3.085Z" transform="translate(956.204 996.214) rotate(90)" fill="currentColor"/>
    <path id="Path_19846" data-name="Path 19846" d="M7.315,4.074A1.87,1.87,0,0,1,5.894.988L16.961-11.958a1.87,1.87,0,0,1,2.637-.206A1.87,1.87,0,0,1,19.8-9.527L8.737,3.419A1.866,1.866,0,0,1,7.315,4.074Z" transform="translate(943.257 996.214) rotate(90)" fill="currentColor"/>
  </g>
</svg>
