<svg xmlns="http://www.w3.org/2000/svg" width="33.2" height="33.199" viewBox="0 0 33.2 33.199">
  <g id="Group_37811" data-name="Group 37811" transform="translate(-255.306 -3911.343)">
    <path id="Path_19847" data-name="Path 19847" d="M329.906,263.547h0a15.6,15.6,0,1,1,15.6-15.6A15.6,15.6,0,0,1,329.906,263.547Z" transform="translate(-58 3679.995)" fill="none" stroke="currentColor" stroke-miterlimit="10" stroke-width="2"/>
    <rect id="Rectangle_19009" data-name="Rectangle 19009" width="2.863" height="9.248" transform="translate(265.248 3924.85)" fill="currentColor"/>
    <path id="Path_19848" data-name="Path 19848" d="M328.906,247.5a1.707,1.707,0,1,0-1.693-1.707,1.7,1.7,0,0,0,1.693,1.707" transform="translate(-62.24 3676.138)" fill="currentColor"/>
    <path id="Path_19849" data-name="Path 19849" d="M337.357,255.23c0-1.3.6-2.075,1.744-2.075,1.053,0,1.559.744,1.559,2.075v4.855h2.849v-5.856c0-2.476-1.4-3.674-3.365-3.674a3.224,3.224,0,0,0-2.787,1.528v-1.246h-2.746v9.248h2.746Z" transform="translate(-64.671 3674.014)" fill="currentColor"/>
  </g>
</svg>
