<svg id="Group_37817" data-name="Group 37817" xmlns="http://www.w3.org/2000/svg" xmlns:xlink="http://www.w3.org/1999/xlink" width="18.696" height="18.696" viewBox="0 0 18.696 18.696">
  <defs>
    <clipPath id="clip-path">
      <rect id="Rectangle_19015" data-name="Rectangle 19015" width="18.696" height="18.696" fill="#060f5c"/>
    </clipPath>
  </defs>
  <g id="Group_37816" data-name="Group 37816" clip-path="url(#clip-path)">
    <path id="Path_19853" data-name="Path 19853" d="M3.663.069c.111,0,.222.005.331.015A3.56,3.56,0,0,1,5.03.338L5.99,6.4a3.574,3.574,0,0,1-2,.84,11.725,11.725,0,0,0,2.876,4.711v0h0a11.724,11.724,0,0,0,4.711,2.876,3.576,3.576,0,0,1,.84-2l6.063.96a3.558,3.558,0,0,1,.254,1.037c.01.109.015.219.015.331a3.594,3.594,0,0,1-3.594,3.594A15.1,15.1,0,0,1,.069,3.663,3.594,3.594,0,0,1,3.663.069" transform="translate(-0.065 -0.065)" fill="#060f5c"/>
    <path id="Path_19854" data-name="Path 19854" d="M15.1,18.7a15,15,0,0,1-5.877-1.187,15.1,15.1,0,0,1-2.565-1.392,15.181,15.181,0,0,1-4.078-4.078A15.1,15.1,0,0,1,1.187,9.474,15,15,0,0,1,0,3.6,3.6,3.6,0,0,1,3.6,0c.111,0,.223.005.331.015A3.563,3.563,0,0,1,4.966.27h0v0l.961,6.065h0a3.566,3.566,0,0,1-1.994.841,11.771,11.771,0,0,0,2.874,4.7h0v0h0a11.768,11.768,0,0,0,4.7,2.873,3.567,3.567,0,0,1,.84-1.994v0h0l6.065.96v0a3.561,3.561,0,0,1,.254,1.038c.01.108.015.22.015.331a3.6,3.6,0,0,1-3.6,3.6M3.6.008A3.594,3.594,0,0,0,.008,3.6,15.108,15.108,0,0,0,15.1,18.688a3.594,3.594,0,0,0,3.59-3.59c0-.111-.005-.222-.015-.33a3.553,3.553,0,0,0-.253-1.033l-6.058-.959a3.559,3.559,0,0,0-.838,1.993v0h0a11.683,11.683,0,0,1-2.541-1.165,11.8,11.8,0,0,1-2.17-1.71H6.8v-.005a11.8,11.8,0,0,1-1.71-2.17A11.689,11.689,0,0,1,3.925,7.177v0h0a3.558,3.558,0,0,0,1.993-.838L4.961.276A3.556,3.556,0,0,0,3.928.023C3.82.013,3.709.008,3.6.008" fill="#060f5c"/>
  </g>
</svg>
