<svg version="1.1" id="Layer_1" xmlns="http://www.w3.org/2000/svg" xmlns:xlink="http://www.w3.org/1999/xlink" x="0px" y="0px"
	 width="100%" viewBox="0 0 191 162" enable-background="new 0 0 191 162" xml:space="preserve">
<path fill="transparent" opacity="1.000000" stroke="none" 
	d="
M45.000000,1.000000 
	C82.687561,1.000000 120.375122,1.000000 158.872467,1.229775 
	C151.757233,14.100799 143.132111,26.364313 136.062469,39.467091 
	C123.819061,62.158852 119.359482,86.970856 119.039986,112.557175 
	C118.830063,129.369003 119.000122,146.185562 119.000000,163.000000 
	C104.645775,163.000000 90.291542,163.000000 75.469284,162.531342 
	C75.001244,134.804764 75.001244,107.546837 75.001244,79.831009 
	C64.970810,79.831009 55.572620,79.831009 45.916176,79.831009 
	C50.788300,59.105568 59.457138,40.603184 71.232086,23.059612 
	C64.135681,17.472485 57.404263,12.285039 50.816345,6.921342 
	C48.684029,5.185268 46.928101,2.986900 45.000000,1.000000 
z"/>
<path fill="#03E1A2" opacity="1.000000" stroke="none" 
	d="
M44.600006,1.000000 
	C46.928101,2.986900 48.684029,5.185268 50.816345,6.921342 
	C57.404263,12.285039 64.135681,17.472485 71.232086,23.059612 
	C59.457138,40.603184 50.788300,59.105568 45.916176,79.831009 
	C55.572620,79.831009 64.970810,79.831009 75.001244,79.831009 
	C75.001244,107.546837 75.001244,134.804764 75.000626,162.531342 
	C50.408501,163.000000 25.816999,163.000000 1.000000,163.000000 
	C1.000000,139.979599 1.000000,116.958458 1.370072,93.745346 
	C2.821564,88.210922 3.907873,82.869446 4.983572,77.525833 
	C10.096030,52.129299 20.988737,29.404079 36.563412,8.801954 
	C38.352272,6.435655 39.535805,3.611740 41.000000,1.000000 
	C42.066669,1.000000 43.133339,1.000000 44.600006,1.000000 
z"/>
<path fill="#03E1A2" opacity="1.000000" stroke="none" 
	d="
M119.468658,163.000000 
	C119.000122,146.185562 118.830063,129.369003 119.039986,112.557175 
	C119.359482,86.970856 123.819061,62.158852 136.062469,39.467091 
	C143.132111,26.364313 151.757233,14.100799 159.341125,1.229775 
	C160.066666,1.000000 161.133347,1.000000 162.259460,1.229151 
	C162.849960,2.091022 163.287933,2.843986 163.926285,3.338031 
	C171.007965,8.818805 178.137451,14.237854 185.216812,19.721611 
	C188.048416,21.915010 189.127838,23.666847 186.380432,27.545849 
	C175.297989,43.192924 168.419052,60.795601 163.763641,80.000000 
	C173.462158,80.000000 182.731079,80.000000 192.000000,80.000000 
	C192.000000,107.588860 192.000000,135.177719 192.000000,163.000000 
	C167.979614,163.000000 143.958466,163.000000 119.468658,163.000000 
z"/>
<path fill="transparent" opacity="1.000000" stroke="none" 
	d="
M40.531342,1.000000 
	C39.535805,3.611740 38.352272,6.435655 36.563412,8.801954 
	C20.988737,29.404079 10.096030,52.129299 4.983572,77.525833 
	C3.907873,82.869446 2.821564,88.210922 1.370072,93.276688 
	C1.000000,62.435310 1.000000,31.870621 1.000000,1.000000 
	C14.019297,1.000000 27.040991,1.000000 40.531342,1.000000 
z"/>
<path fill="transparent" opacity="1.000000" stroke="none" 
	d="
M192.000000,79.531342 
	C182.731079,80.000000 173.462158,80.000000 163.763641,80.000000 
	C168.419052,60.795601 175.297989,43.192924 186.380432,27.545849 
	C189.127838,23.666847 188.048416,21.915010 185.216812,19.721611 
	C178.137451,14.237854 171.007965,8.818805 163.926285,3.338031 
	C163.287933,2.843986 162.849960,2.091022 162.659454,1.229151 
	C172.627350,1.000000 182.254684,1.000000 192.000000,1.000000 
	C192.000000,27.020786 192.000000,53.041733 192.000000,79.531342 
z"/>
</svg>